<svg xmlns="http://www.w3.org/2000/svg" width="242.713" height="43.987"><path fill="#007A3E" d="M23.259 9.7l7.833 17.958H15.426L23.259 9.7zM18.92.843L0 43.023h8.617l3.615-7.955h22.054l3.555 7.955h8.676L27.597.843H18.92zM50.896.988h18.845c4.84 0 8.502 1.241 10.983 3.721 1.88 1.881 2.821 4.201 2.821 6.962v.12c0 1.281-.171 2.411-.511 3.391-.34.981-.78 1.841-1.32 2.581a9.342 9.342 0 0 1-1.92 1.951c-.742.56-1.491 1.04-2.251 1.44 1.24.441 2.37.951 3.391 1.53 1.02.581 1.9 1.271 2.64 2.071.741.8 1.31 1.741 1.711 2.821.4 1.08.6 2.34.6 3.78v.12c0 1.882-.37 3.541-1.11 4.982a9.912 9.912 0 0 1-3.151 3.6c-1.361.961-3.001 1.691-4.921 2.191-1.921.5-4.042.75-6.362.75H50.896V.988zm25.266 11.883c0-1.68-.63-2.99-1.89-3.93C73.012 8 71.181 7.53 68.78 7.53H58.158v11.164H68.24c2.401 0 4.321-.471 5.762-1.411 1.44-.94 2.16-2.371 2.16-4.291v-.121zm2.341 17.705c0-1.8-.71-3.189-2.131-4.17-1.42-.98-3.591-1.471-6.512-1.471H58.158v11.523h12.243c2.521 0 4.501-.48 5.942-1.441 1.44-.96 2.16-2.4 2.16-4.321v-.12zM199.389 43.023h-31.574V.843h31.574v7.714h-23.681v9.701h22.837v7.411h-22.837v9.521h23.681zM122.824 43.023H91.25V.843h31.574v7.714H99.143v9.701h22.838v7.411H99.143v9.521h23.681zM242.713 37.72c-4.338 4.277-9.942 6.267-16.027 6.267-15.666 0-22.295-10.786-22.354-21.752C204.27 11.207 211.441 0 226.686 0c5.725 0 11.146 2.169 15.485 6.447l-5.302 5.122c-2.772-2.711-6.509-3.977-10.184-3.977-10.183 0-14.582 7.592-14.521 14.642.061 6.99 4.097 14.28 14.521 14.28 3.675 0 7.834-1.506 10.605-4.277l5.423 5.483z"/><path fill="#FFE100" d="M131.12 43.083v-30.67l14.4 18.378 14.341-18.318v30.61z"/><path fill="#007A3E" d="M132.325.904l13.195 18.137L158.717.904z"/></svg>