<svg width="25" height="25" xmlns="http://www.w3.org/2000/svg"><defs><linearGradient x1="50%" y1="99.709%" x2="50%" y2=".777%" id="a"><stop stop-color="#E09B3D" offset="0%"/><stop stop-color="#C74C4D" offset="30%"/><stop stop-color="#C21975" offset="60%"/><stop stop-color="#7024C4" offset="100%"/></linearGradient><linearGradient x1="50%" y1="146.099%" x2="50%" y2="-45.16%" id="b"><stop stop-color="#E09B3D" offset="0%"/><stop stop-color="#C74C4D" offset="30%"/><stop stop-color="#C21975" offset="60%"/><stop stop-color="#7024C4" offset="100%"/></linearGradient><linearGradient x1="50%" y1="658.141%" x2="50%" y2="-140.029%" id="c"><stop stop-color="#E09B3D" offset="0%"/><stop stop-color="#C74C4D" offset="30%"/><stop stop-color="#C21975" offset="60%"/><stop stop-color="#7024C4" offset="100%"/></linearGradient></defs><g transform="translate(.313 .313)" fill-rule="nonzero" fill="none"><path d="M16.82 0H7.138A7.145 7.145 0 0 0 0 7.137v9.684a7.145 7.145 0 0 0 7.137 7.137h9.684a7.145 7.145 0 0 0 7.137-7.137V7.137C23.958 3.202 20.756 0 16.821 0zm4.728 16.82a4.727 4.727 0 0 1-4.727 4.728H7.137A4.727 4.727 0 0 1 2.41 16.82V7.137A4.727 4.727 0 0 1 7.137 2.41h9.684a4.727 4.727 0 0 1 4.727 4.727v9.684z" fill="url(#a)"/><path d="M11.979 5.783a6.203 6.203 0 0 0-6.196 6.196 6.203 6.203 0 0 0 6.196 6.196 6.203 6.203 0 0 0 6.196-6.196 6.203 6.203 0 0 0-6.196-6.196zm0 9.982a3.786 3.786 0 1 1 0-7.572 3.786 3.786 0 0 1 0 7.572z" fill="url(#b)"/><circle fill="url(#c)" cx="18.187" cy="5.829" r="1.485"/></g></svg>